# xmcd
#
# Track frame offsets:
# 150
# 21070
# 36553
# 54214
# 76630
# 98328
# 111570
# 128640
# 145926
# 159691
# 176744
# 193322
# 219042
# 240905
#
# Disc length: 3406 seconds
#
#
# Revision: 0
# Processed by: cddbd v1.5.2PL0 Copyright (c) Steve Scherf et al.
# Submitted via: Nero 7, 11, 10, 0 
#
DISCID=b10d4c0e
DTITLE=Ted Hall and The Pleasure Cats - Thief In The Night
DYEAR=2000
DGENRE=Blues
TTITLE0=Thief In The Night
TTITLE1=Let Love Be
TTITLE2=Feel My Music
TTITLE3=Tables About To Turn
TTITLE4=Exile
TTITLE5=Lonely When My Baby's Gone
TTITLE6=Don't Throw It All Away
TTITLE7=To Be True
TTITLE8=Say Goodbye
TTITLE9=Gotta Gotta Have Your Love
TTITLE10=Mr. Blues Man
TTITLE11=Salsa #10
TTITLE12=See A Man About A Horse
TTITLE13=Don't Wait Too Long
EXTD=
EXTT0=Thief In The Night
EXTT1=Let Love Be
EXTT2=Feel My Music
EXTT3=Tables About To Turn
EXTT4=Exile
EXTT5=Lonely When My Baby's Gone
EXTT6=Don't Throw It All Away
EXTT7=To Be True
EXTT8=Say Goodbye
EXTT9=Gotta Gotta Have Your Love
EXTT10=Mr. Blues Man
EXTT11=Salsa #10
EXTT12=See A Man About A Horse
EXTT13=Don't Wait Too Long
PLAYORDER=
